# xmcd
#
# Track frame offsets:
#	150
#	16299
#	30080
#	47959
#	66263
#	86638
#	101616
#	122454
#	143239
#	161667
#	188656
#	205115
#
# Disc length: 2961 seconds
#
# Revision: 0
# Processed by: cddbd v1.5.2PL0 Copyright (c) Steve Scherf et al.
# Submitted via: dBpowerAMP V4.0
#
DISCID=980b8f0c
DTITLE=Sugarland - Love on the Inside 
DYEAR=2008
DGENRE=Country
TTITLE0=All I Want to Do
TTITLE1=It Happens
TTITLE2=We Run
TTITLE3=Joey
TTITLE4=Love
TTITLE5=Genevieve
TTITLE6=Already Gone
TTITLE7=Keep You
TTITLE8=Take Me as I Am
TTITLE9=What I'd Give
TTITLE10=Steve Earle
TTITLE11=Very Last Country Song
EXTD=
EXTT0=
EXTT1=
EXTT2=
EXTT3=
EXTT4=
EXTT5=
EXTT6=
EXTT7=
EXTT8=
EXTT9=
EXTT10=
EXTT11=
PLAYORDER=
